<?xml version="1.0" encoding="UTF-8" standalone="no"?>
<!-- Uploaded to: SVG Repo, www.svgrepo.com, Generator: SVG Repo Mixer Tools -->

<svg
   xmlns:dc="http://purl.org/dc/elements/1.1/"
   xmlns:cc="http://creativecommons.org/ns#"
   xmlns:rdf="http://www.w3.org/1999/02/22-rdf-syntax-ns#"
   xmlns:svg="http://www.w3.org/2000/svg"
   xmlns="http://www.w3.org/2000/svg"
   xmlns:sodipodi="http://sodipodi.sourceforge.net/DTD/sodipodi-0.dtd"
   xmlns:inkscape="http://www.inkscape.org/namespaces/inkscape"
   width="32px"
   height="32px"
   viewBox="0 0 512 512"
   version="1.1"
   id="svg4"
   sodipodi:docname="american-football.svg"
   inkscape:version="0.92.4 (5da689c313, 2019-01-14)">
  <metadata
     id="metadata10">
    <rdf:RDF>
      <cc:Work
         rdf:about="">
        <dc:format>image/svg+xml</dc:format>
        <dc:type
           rdf:resource="http://purl.org/dc/dcmitype/StillImage" />
        <dc:title></dc:title>
      </cc:Work>
    </rdf:RDF>
  </metadata>
  <defs
     id="defs8" />
  <sodipodi:namedview
     pagecolor="#ffffff"
     bordercolor="#666666"
     borderopacity="1"
     objecttolerance="10"
     gridtolerance="10"
     guidetolerance="10"
     inkscape:pageopacity="0"
     inkscape:pageshadow="2"
     inkscape:window-width="1194"
     inkscape:window-height="738"
     id="namedview6"
     showgrid="false"
     inkscape:zoom="7.375"
     inkscape:cx="16"
     inkscape:cy="16"
     inkscape:window-x="89"
     inkscape:window-y="10"
     inkscape:window-maximized="0"
     inkscape:current-layer="svg4" />
  <path
     fill="#000000"
     d="M402.105 23.23c-7.135.02-14.64.307-22.437.872 40.125 28.894 79.33 68.1 108.227 108.224 1.316-18.198 1.093-34.787-.348-48.912-2.398-23.496-9.092-40.233-13.91-45.05-4.818-4.82-21.555-11.513-45.05-13.91-5.875-.6-12.173-.99-18.835-1.147-2.498-.06-5.05-.086-7.647-.078zm-92.53 12.63c-58.62 15.315-122.552 45.856-175.186 98.48C81.94 187.202 51.592 251.473 36.4 310.324c34.234 47.728 118.68 132.105 166.024 165.815 58.63-15.317 122.572-45.864 175.21-98.503 52.64-52.64 83.187-116.582 98.503-175.21-33.886-47.59-118.976-132.68-166.566-166.566zm-9.6 20.09l8.05 16.1c-11.915 5.958-23.11 11.755-33.668 17.47l5.94 12.242-16.195 7.857-5.498-11.33c-13.5 7.696-25.94 15.33-37.448 23.097l6.725 10.095-14.98 9.98-6.463-9.702c-12.19 8.987-23.36 18.27-33.796 28.154l9.723 9.723-12.726 12.726-9.723-9.722c-9.86 10.414-19.125 21.552-28.092 33.71l10.19 6.578-9.764 15.12-10.805-6.976c-7.575 11.217-15.02 23.32-22.52 36.424l13.266 6.154-7.573 16.33-14.49-6.722c-5.914 10.885-11.908 22.43-18.076 34.767l-16.1-8.05c6.045-12.092 11.97-23.495 17.853-34.288l-10.24-4.75 7.574-16.328 11.496 5.33c7.924-13.797 15.84-26.587 23.93-38.473l-12.334-7.965 9.762-15.12 12.996 8.39c9.726-13.15 19.805-25.223 30.543-36.514l-9.893-9.895 12.726-12.726 9.895 9.894c11.258-10.705 23.293-20.757 36.396-30.456L187.81 103.8l14.98-9.98 8.548 12.83c12.162-8.283 25.268-16.382 39.437-24.496l-6.43-13.25 16.194-7.857 5.974 12.312c10.55-5.737 21.673-11.517 33.46-17.41zM24.76 380.583c-1.275 17.855-1.087 34.14.26 48.047 2.277 23.475 8.798 40.26 13.418 45.065 4.892 4.814 21.572 11.464 44.976 13.852 14.125 1.44 30.713 1.664 48.912.348C92.506 459.22 53.59 420.39 24.76 380.585z"
     id="path2" />
  <path
     style="fill:#775a4f;fill-opacity:1;fill-rule:evenodd;stroke:#800080;stroke-width:0.09545763;stroke-miterlimit:4;stroke-dasharray:none;stroke-opacity:1"
     d="M 10.990808,28.33538 C 8.0740222,25.906883 2.6813812,20.253502 2.4614555,19.393626 2.3497336,18.956809 3.2185658,16.495676 4.1716568,14.549153 6.9273539,8.9211189 11.605948,4.8629944 17.688842,2.8246012 l 1.585662,-0.5313597 0.416985,0.2959697 c 1.004976,0.713317 3.411302,2.8877907 5.333398,4.8195209 1.952386,1.9621718 4.301384,4.6236529 4.549706,5.1549449 0.139082,0.29757 -0.657068,2.717854 -1.453445,4.418453 -2.719267,5.806777 -7.606427,10.121325 -13.819011,12.199884 -0.798574,0.267181 -1.51024,0.485783 -1.58148,0.485783 -0.07124,0 -0.849672,-0.599588 -1.729849,-1.332417 z m -5.6425304,-10.565432 0.3304153,-0.575814 0.4544252,0.18987 0.4544252,0.189871 0.2492835,-0.552812 c 0.163375,-0.3623 0.1984327,-0.569761 0.101728,-0.601997 -0.081156,-0.02705 -0.2589536,-0.130642 -0.3951068,-0.230198 -0.233269,-0.170571 -0.2103946,-0.240631 0.396477,-1.214316 0.6435414,-1.03252 0.6443062,-1.033158 1.0113054,-0.843375 0.3533695,0.182734 0.3793737,0.171472 0.6867387,-0.297418 L 8.9574311,13.346415 8.6528618,13.099789 8.3482927,12.853164 8.6883672,12.413023 C 8.875408,12.170945 9.2425184,11.728814 9.5041677,11.430508 l 0.4757263,-0.542372 0.326513,0.304376 0.326513,0.304377 0.431369,-0.44506 0.431369,-0.44506 -0.303761,-0.310027 -0.303761,-0.3100269 0.542372,-0.4791368 C 11.728814,9.2440532 12.170945,8.875408 12.413023,8.6883672 l 0.440141,-0.3400745 0.237825,0.2904175 0.237825,0.2904175 0.508421,-0.3473819 c 0.489578,-0.3345073 0.500641,-0.3592564 0.298493,-0.6677724 -0.206996,-0.3159166 -0.19595,-0.3291022 0.791095,-0.9443005 0.550563,-0.3431506 1.068061,-0.6239102 1.149997,-0.6239102 0.08193,0 0.187705,0.1220339 0.235044,0.2711865 0.104865,0.3303997 0.196037,0.3349656 0.813076,0.04072 0.344076,-0.1640783 0.458146,-0.2910203 0.395997,-0.440678 -0.240923,-0.5801447 -0.2088,-0.6265871 0.803422,-1.1615686 L 19.336346,4.5205658 19.075586,4.0094355 C 18.932169,3.7283138 18.74566,3.4983051 18.661123,3.4983051 c -0.08454,0 -0.550784,0.2220586 -1.036101,0.4934633 -0.828255,0.4631866 -0.893229,0.4786457 -1.058988,0.251958 -0.09713,-0.132828 -0.195856,-0.2992943 -0.219399,-0.3699252 -0.04732,-0.1419482 -1.05172,0.2919606 -1.05172,0.4543497 0,0.055909 0.05724,0.2522148 0.127208,0.4362354 0.119042,0.3131032 0.05749,0.3789562 -0.958722,1.0257763 -0.597261,0.3801563 -1.125094,0.6911933 -1.172962,0.6911933 -0.04787,0 -0.211358,-0.1542383 -0.363312,-0.3427518 L 12.650847,5.7958522 12.138496,6.1461265 11.626145,6.4964009 11.916,6.9034649 c 0.15942,0.2238852 0.267945,0.4204295 0.241165,0.4367649 -0.02678,0.016336 -0.52668,0.4178842 -1.110889,0.8923302 L 9.984078,9.095189 9.6954339,8.8065449 9.4067898,8.517901 8.96173,8.94927 8.5166701,9.3806391 8.8032098,9.6856465 9.0897494,9.9906541 8.2298401,11.049564 C 7.75689,11.631965 7.3549566,12.131994 7.3366546,12.16074 7.3183528,12.189486 7.1510786,12.113215 6.9649345,11.991249 6.5052255,11.690036 6.4582502,11.703852 6.1090359,12.242988 l -0.3045234,0.47014 0.3384217,0.221743 c 0.186132,0.121958 0.3384217,0.271232 0.3384217,0.331721 0,0.06049 -0.2898305,0.573758 -0.6440678,1.140599 -0.6112928,0.978174 -0.6651827,1.026917 -1.059005,0.957857 -0.3726102,-0.06534 -0.4391108,-0.02207 -0.6519114,0.424176 -0.2394499,0.502132 -0.2094922,0.59375 0.2532893,0.774615 0.074576,0.02914 -0.09322,0.481225 -0.3728813,1.004621 -0.2796611,0.523395 -0.5084746,1.017727 -0.5084746,1.098515 0,0.08079 0.2288135,0.265007 0.5084746,0.409379 l 0.5084745,0.262492 0.251304,-0.496541 c 0.1382173,-0.273098 0.399991,-0.755658 0.5817194,-1.072357 z"
     id="path4520"
     inkscape:connector-curvature="0"
     transform="scale(16)" />
  <path
     style="fill:#775a4f;fill-opacity:1;fill-rule:evenodd;stroke:#800080;stroke-width:0.09545763;stroke-miterlimit:4;stroke-dasharray:none;stroke-opacity:1"
     d="M 29.80339,7.2626651 C 29.043828,6.2233447 26.094783,3.2387523 24.943508,2.344202 24.154239,1.7309332 24.106915,1.665675 24.367227,1.5495205 c 0.385305,-0.171928 3.279508,0.1024891 4.14835,0.3933305 0.372704,0.1247609 0.816106,0.3544651 0.985337,0.5104536 0.525674,0.484537 0.861404,1.8562131 0.944417,3.8585598 0.04097,0.9881356 0.05058,1.7941565 0.02136,1.7911574 -0.02922,-0.003 -0.327704,-0.3811596 -0.663297,-0.8403567 z"
     id="path4522"
     inkscape:connector-curvature="0"
     transform="scale(16)" />
  <path
     style="fill:#775a4f;fill-opacity:1;fill-rule:evenodd;stroke:#800080;stroke-width:0.09545763;stroke-miterlimit:4;stroke-dasharray:none;stroke-opacity:1"
     d="M 4.6865608,30.341314 C 3.6019327,30.158681 2.7014186,29.799563 2.414993,29.435432 1.9299941,28.818856 1.710708,27.801864 1.6464624,25.871186 L 1.58555,24.040678 1.8742447,24.379661 c 1.8138093,2.129761 2.32079,2.688419 3.1829134,3.507352 0.550768,0.523176 1.4666256,1.320929 2.0352393,1.772786 l 1.0338431,0.821557 -1.3987134,-0.01595 c -0.7692925,-0.0088 -1.6877272,-0.06461 -2.0409663,-0.124094 z"
     id="path4524"
     inkscape:connector-curvature="0"
     transform="scale(16)" />
</svg>
